<svg viewBox="0 0 96 96" xml:space="preserve" xmlns="http://www.w3.org/2000/svg" enable-background="new 0 0 96 96"><g id="koper"><path d="m20.6 63 .6 3.6.6-3.6h-1.2zM26.2 62.8l.6 3.4.6-3.4h-1.2zM47.3 62.9l.6 3.5.6-3.5h-1.2zM59.8 63.2l.6 3.6.6-3.6h-1.2zM67.1 63l.6 3.6.6-3.6h-1.2zM15.8 37.5c-2 5.6-5.1 16.9-1.4 23.4 6.3.9 11.1.1 15.7-.7 5.3-.9 10.4-1.8 16.5.5 2 .5 8.1 1 25.3 0 6.3-.4 11.3-4.5 11.3-7.8 0-2.9-3.9-5-10.4-5.6H72.5c-.1 0-.3 0-.4-.1-3.3-.9-22.1-5.2-32.6-10.8-2-1-3.5-2.1-4.7-3.1-.5-.4-.7-.4-.7-.4-.6.2-1.2 3-1.5 4.6-.8 3.8-1.8 8.2-5 9-2.7.7-5-1.3-9.6-6.2" fill="#ffffff" class="fill-000000 fill-fff5f5"></path><path d="M37.8 40.2c-.2 0-.3 0-.5-.1-.5-.3-.7-.9-.4-1.4l1.9-3.5c.3-.5.9-.7 1.4-.4.5.3.7.9.4 1.4l-1.9 3.5c-.2.3-.6.5-.9.5zM43.4 42.2c-.2 0-.3 0-.5-.1-.5-.3-.7-.9-.4-1.4l1.7-3.1c.3-.5.9-.7 1.4-.4.5.3.7.9.4 1.4l-1.7 3.1c-.2.3-.5.5-.9.5zM49.1 43.6c-.2 0-.3 0-.5-.1-.5-.3-.7-.9-.4-1.4l1.4-2.6c.3-.5.9-.7 1.4-.4s.7.9.4 1.4L50 43.1c-.2.3-.5.5-.9.5zM54.3 44.7c-.2 0-.3 0-.4-.1-.5-.2-.7-.8-.4-1.3l1.1-2.2c.2-.5.9-.7 1.3-.4.5.2.7.8.4 1.3l-1.1 2.2c-.2.3-.6.5-.9.5z" fill="#000000" class="fill-ffffff fill-000000"></path><path d="M55.3 47.3c-2.8 0-6.6-.8-11.2-2.3-5.8-1.8-9.1-2.9-11-3.5-3.1-1-3.3-1.1-3-2 .3-1 1.3-.7 1.6-.6.1 0 .2.1.3.1 1.1.4 4.1 1.4 12.6 4.1 10.1 3.2 13.2 2 14.1 1.4.6-.5.6-1 .6-1.1 0-.5.4-1 .9-1.1.5 0 1 .3 1.1.9 0 .2.1 1.6-1.3 2.8-1 .9-2.6 1.3-4.7 1.3z" fill="#000000" class="fill-ffffff fill-000000"></path><path d="M12 50.8c-.4 0-.8-.3-1-.7-.1-.5.2-1.1.7-1.2l7.4-2.1c.5-.1 1.1.2 1.2.7.1.5-.2 1.1-.7 1.2l-7.4 2.1H12zM12 54.8c-.4 0-.8-.3-1-.7-.1-.5.2-1.1.7-1.2l7.4-2.1c.5-.1 1.1.2 1.2.7.1.5-.2 1.1-.7 1.2l-7.4 2.1H12z" fill="#000000" class="fill-fff8fa fill-000000"></path></g></svg>