<svg xmlns="http://www.w3.org/2000/svg" version="1.1" xmlns:xlink="http://www.w3.org/1999/xlink" xmlns:svgjs="http://svgjs.dev/svgjs" width="128" height="128" viewBox="0 0 128 128"><g transform="matrix(0.8046875,0,0,0.8046875,12.221578124999994,41.047292498663595)"><svg viewBox="0 0 96 43" data-background-color="#c8c8c8" preserveAspectRatio="xMidYMid meet" height="57" width="128" xmlns="http://www.w3.org/2000/svg" xmlns:xlink="http://www.w3.org/1999/xlink"><g id="tight-bounds" transform="matrix(1,0,0,1,0.25950000000000273,0.017918938401564333)"><svg viewBox="0 0 95.481 42.96233556203767" height="42.96233556203767" width="95.481"><g><svg viewBox="0 0 95.481 42.96233556203767" height="42.96233556203767" width="95.481"><g><svg viewBox="0 0 95.481 42.96233556203767" height="42.96233556203767" width="95.481"><g id="textblocktransform"><svg viewBox="0 0 95.481 42.96233556203767" height="42.96233556203767" width="95.481" id="textblock"><g><svg viewBox="0 0 95.481 42.96233556203767" height="42.96233556203767" width="95.481"><g><svg viewBox="0 0 95.481 42.96233556203767" height="42.96233556203767" width="95.481"><g><svg xmlns="http://www.w3.org/2000/svg" xmlns:xlink="http://www.w3.org/1999/xlink" version="1.1" x="0" y="0" viewBox="7.810908638834036 30.163252342988677 89.06574589069224 40.07574765701133" enable-background="new 0 0 100 100" xml:space="preserve" height="42.96233556203767" width="95.481" class="icon-icon-0" data-fill-palette-color="accent" id="icon-0"><path d="M96.55 53.792C95.218 50.854 90.175 49.565 87.162 48.796 86.856 48.717 86.578 48.647 86.337 48.582 85.372 48.322 84.407 48.069 83.444 47.815 81.867 47.4 80.271 46.981 78.673 46.532A0.75 0.75 0 0 0 78.093 46.366C75.685 45.679 73.28 44.92 70.937 44.012 71.007 43.679 70.956 43.321 70.78 42.999A1.83 1.83 0 0 0 69.866 42.192 1.9 1.9 0 0 0 69.135 42.043C68.574 42.043 68.078 42.306 67.809 42.729L67.796 42.722A101 101 0 0 1 65.062 41.482C65.204 41.118 65.208 40.706 65.07 40.326A1.8 1.8 0 0 0 64.208 39.349 1.84 1.84 0 0 0 63.358 39.138 1.66 1.66 0 0 0 61.908 39.956C60.948 39.479 59.929 38.965 58.648 38.312A1.759 1.759 0 0 0 55.552 36.727C54.629 36.255 53.705 35.784 52.78 35.316A1.76 1.76 0 0 0 51.128 32.968C50.535 32.968 49.994 33.262 49.669 33.746 49.107 33.463 48.54 33.184 47.974 32.905 46.535 32.197 45.045 31.464 43.648 30.661 42.735 30.137 41.714 30.02 40.847 30.342 40.053 30.636 39.446 31.281 39.138 32.157 38.844 32.99 38.923 33.703 39.186 34.3 37.356 34.415 35.495 35.324 34.191 36.822 33.76 37.318 33.376 37.824 33.004 38.314 32.178 39.402 31.398 40.43 30.231 41.169 26.825 43.327 22.526 43.31 19.778 41.126 18.491 40.103 17.549 38.744 16.631 36.583L16.598 36.506C16.294 35.785 15.875 34.798 14.962 34.383 14.461 34.154 13.166 33.831 12.003 35.751 10.67 37.951 10.045 40.644 9.494 43.021L9.429 43.301C8.84 45.833 8.254 48.561 7.954 51.359 7.728 53.458 7.59 56.548 8.988 59.142 10.102 61.21 12.074 62.235 14.001 62.956A0.7 0.7 0 0 0 14.194 63.211C14.813 63.738 16.401 65.445 16.314 66.993A0.754 0.754 0 0 0 16.994 67.786L20.888 68.165A0.754 0.754 0 0 0 21.698 67.573C21.703 67.548 22.221 65.24 23.937 64.659 24.242 64.663 24.546 64.664 24.851 64.663 25.647 65.202 27.202 66.522 27.349 67.927A0.754 0.754 0 0 0 28.098 68.602L28.147 68.601 32.052 68.352A0.756 0.756 0 0 0 32.757 67.64C32.757 67.632 32.807 66.825 33.161 65.981 33.559 65.036 34.171 64.445 34.975 64.213 39.096 64.049 43.954 64.035 48.827 64.613 50.533 64.815 52.258 65.129 53.924 65.434 54.851 65.602 55.804 65.773 56.756 65.929 56.77 65.939 56.78 65.952 56.794 65.961 57.462 66.425 59.21 67.966 59.275 69.518A0.754 0.754 0 0 0 60.027 70.239H60.029L63.941 70.234A0.75 0.75 0 0 0 64.689 69.565C64.693 69.536 65.056 66.567 67.317 66.246A0.8 0.8 0 0 0 67.615 66.134C68.478 66.68 69.914 67.834 70.13 69.135 70.191 69.502 70.509 69.765 70.872 69.766 70.903 69.765 70.935 69.764 70.967 69.759L74.85 69.277A0.754 0.754 0 0 0 75.51 68.525C75.51 68.516 75.511 67.708 75.815 66.844 76.149 65.897 76.706 65.277 77.468 64.989 77.799 64.939 78.13 64.887 78.462 64.835A1 1 0 0 0 78.598 64.901C79.36 65.184 81.437 66.242 81.887 67.726A0.755 0.755 0 0 0 82.797 68.238L86.584 67.259A0.76 0.76 0 0 0 87.143 66.426 5.6 5.6 0 0 1 87.228 64.722C87.457 63.637 88.007 62.908 88.859 62.555A0.75 0.75 0 0 0 89.179 62.3C89.588 62.157 89.999 62.006 90.408 61.845 92.362 61.076 95.103 59.772 96.344 57.327 96.977 56.078 97.046 54.888 96.55 53.792M85.945 50.037C86.193 50.104 86.476 50.176 86.789 50.256 89.359 50.913 94.143 52.136 95.177 54.415 95.289 54.665 95.353 54.923 95.364 55.192 94.684 56.942 89.378 58.411 86.169 58.929L86.098 58.945C78.335 60.984 72.782 62 68.528 62.399L62.329 58.63C73.011 58.082 79.115 56.034 80.478 52.53 81.065 51.022 80.672 49.579 80.111 48.49 81.098 48.756 82.084 49.015 83.06 49.273 84.021 49.525 84.982 49.778 85.945 50.037M36.447 59.005A63 63 0 0 0 34.316 58.246L45.623 38.55 46.167 38.783C46.456 38.907 46.745 39.031 47.032 39.156A1.76 1.76 0 0 0 48.786 40.939C49.26 40.939 49.7 40.75 50.024 40.427L50.03 40.43C50.524 40.635 51.027 40.84 51.532 41.046L40.702 59.792 40.693 59.81C39.455 59.692 38.132 59.468 36.447 59.005M52.097 36.663C53.012 37.124 53.925 37.59 54.836 38.057L53.669 40.282 53.145 40.071A0.7 0.7 0 0 0 52.599 39.852C51.995 39.607 51.397 39.363 50.808 39.12zM57.968 39.659C59.236 40.306 60.249 40.817 61.202 41.29L60.371 42.875A384 384 0 0 1 56.962 41.577zM56.207 43.015L56.257 42.919 56.268 42.924C57.367 43.35 58.512 43.787 59.675 44.224 59.369 45.008 59.728 45.934 60.53 46.355 60.793 46.493 61.087 46.566 61.379 46.566 62.012 46.566 62.58 46.233 62.862 45.694L62.989 45.453C64.049 45.841 65.109 46.225 66.171 46.607L66.147 46.668C65.825 47.44 66.273 48.364 67.145 48.727 67.381 48.826 67.627 48.876 67.876 48.876 68.522 48.876 69.084 48.526 69.311 47.984L69.404 47.76C69.927 47.945 70.449 48.13 70.972 48.313A0.753 0.753 0 1 0 71.472 46.891L69.984 46.366 70.381 45.412C72.849 46.369 75.369 47.16 77.887 47.873 78.426 48.495 79.753 50.268 79.078 51.988 77.479 56.066 66.584 57.02 60.015 57.22L48.034 49.934 52.862 41.578 52.987 41.628A1.76 1.76 0 0 0 54.648 43.954 1.75 1.75 0 0 0 56.207 43.015M47.324 51.165L59.066 58.305C59.186 58.557 59.444 58.732 59.74 58.732H59.761L59.767 58.731 66.08 62.571C61.243 62.781 58.249 62.109 55.166 61.416 53.524 61.047 51.828 60.666 49.826 60.411 47.153 60.068 45.276 60.013 43.62 59.963 43.155 59.949 42.708 59.936 42.266 59.917zM69.133 43.462C69.194 43.462 69.259 43.476 69.321 43.502 69.483 43.569 69.551 43.686 69.555 43.708L68.009 47.428C68.002 47.434 67.959 47.46 67.876 47.459A0.5 0.5 0 0 1 67.688 47.419C67.526 47.352 67.458 47.235 67.454 47.213L69 43.493A0.24 0.24 0 0 1 69.133 43.462M67.211 44.111L66.751 45.215A528 528 0 0 1 63.696 44.107L64.37 42.824C65.315 43.27 66.265 43.702 67.194 44.106 67.2 44.109 67.206 44.109 67.211 44.111M63.355 40.647A0.3 0.3 0 0 1 63.505 40.686C63.575 40.723 63.629 40.78 63.652 40.843 63.662 40.871 63.67 40.911 63.652 40.945L61.527 44.995C61.502 45.043 61.431 45.06 61.38 45.06A0.3 0.3 0 0 1 61.23 45.021C61.105 44.955 61.047 44.827 61.083 44.761L63.209 40.711C63.233 40.664 63.304 40.647 63.355 40.647M56.985 37.498A0.25 0.25 0 0 1 57.206 37.866L54.871 42.315A0.25 0.25 0 0 1 54.531 42.42 0.25 0.25 0 0 1 54.426 42.081L56.761 37.632A0.25 0.25 0 0 1 56.985 37.498M51.125 34.479A0.25 0.25 0 0 1 51.346 34.847L49.011 39.296A0.25 0.25 0 0 1 48.671 39.402 0.25 0.25 0 0 1 48.566 39.063L50.901 34.613A0.25 0.25 0 0 1 51.125 34.479M40.559 32.661C40.72 32.202 40.994 31.898 41.371 31.758 41.817 31.592 42.374 31.67 42.896 31.97 44.336 32.797 45.847 33.54 47.307 34.26 47.859 34.531 48.409 34.803 48.955 35.078L47.559 37.74 46.761 37.397C45.216 36.735 43.618 36.051 42.19 35.199 40.355 34.105 40.321 33.333 40.559 32.661M9.452 51.524C9.744 48.807 10.319 46.132 10.896 43.646L10.961 43.365C11.512 40.988 12.083 38.529 13.291 36.535 13.513 36.168 13.945 35.58 14.338 35.759 14.716 35.93 15.002 36.605 15.21 37.096L15.243 37.175C15.923 38.775 16.946 40.804 18.84 42.309 22.082 44.886 27.098 44.941 31.038 42.445 32.434 41.561 33.333 40.375 34.204 39.228 34.56 38.758 34.93 38.272 35.328 37.813 36.66 36.282 38.788 35.507 40.532 35.905 40.88 36.171 41.207 36.367 41.418 36.492 42.351 37.048 43.332 37.529 44.319 37.974L32.937 57.803C32.622 57.706 32.307 57.612 31.998 57.522A120 120 0 0 1 27.044 55.509C16.408 50.942 11.328 52.379 9.325 53.532 9.333 52.905 9.375 52.238 9.452 51.524M10.077 57.939C9.738 57.176 9.515 56.313 9.404 55.33L9.406 55.328C9.439 55.288 12.802 51.732 24.061 55.934 16.329 55.13 11.76 57.03 10.077 57.939M21.057 65.25C20.753 65.745 20.547 66.235 20.416 66.609L17.789 66.352C17.662 65.405 17.21 64.527 16.717 63.813 18.311 64.212 19.928 64.441 21.555 64.56 21.377 64.771 21.211 65 21.057 65.25M31.751 65.447A7 7 0 0 0 31.336 66.89L28.702 67.058C28.41 66.093 27.772 65.258 27.137 64.619 28.419 64.572 29.696 64.497 30.964 64.423L31.918 64.367 32.358 64.342A5.5 5.5 0 0 0 31.751 65.447M63.823 67.316A7.2 7.2 0 0 0 63.318 68.731L60.678 68.735C60.452 67.778 59.891 66.925 59.314 66.256 60.249 66.33 61.162 66.363 62.042 66.363 62.881 66.363 63.688 66.336 64.461 66.295 64.223 66.595 64.009 66.935 63.823 67.316M74.375 66.394A7.3 7.3 0 0 0 74.047 67.861L71.428 68.186C71.088 67.267 70.431 66.492 69.778 65.897A142 142 0 0 0 74.852 65.354 5.5 5.5 0 0 0 74.375 66.394M85.741 64.46A7.2 7.2 0 0 0 85.605 65.956L83.049 66.617C82.547 65.662 81.686 64.928 80.898 64.412A85 85 0 0 0 82.614 64.071 66 66 0 0 0 86.147 63.231 5.5 5.5 0 0 0 85.741 64.46M89.854 60.443C87.777 61.26 85.377 61.945 82.302 62.595A86 86 0 0 1 77.643 63.441 0.75 0.75 0 0 0 77.318 63.454 5 5 0 0 0 77.08 63.526C73.816 64.012 70.651 64.324 67.857 64.547A0.75 0.75 0 0 0 67.201 64.599C66.697 64.637 66.205 64.674 65.731 64.707 63.319 64.879 60.446 64.99 57.424 64.517A129 129 0 0 1 54.193 63.954C52.504 63.646 50.756 63.328 49.004 63.12 44.15 62.545 39.329 62.546 35.211 62.701A0.7 0.7 0 0 0 34.866 62.688C34.822 62.697 34.781 62.709 34.738 62.719 33.719 62.76 32.746 62.811 31.831 62.863L30.874 62.92C28.992 63.03 27.087 63.14 25.187 63.157A0.7 0.7 0 0 0 25.003 63.142 0.76 0.76 0 0 0 24.573 63.027 4 4 0 0 0 23.735 63.15C20.894 63.094 18.082 62.774 15.402 61.861 13.703 61.283 11.98 60.598 10.862 59.242 12.874 58.206 19.652 55.559 31.578 58.976 33.32 59.631 34.766 60.107 36.018 60.455 36.144 60.502 36.269 60.547 36.395 60.596A0.7 0.7 0 0 0 36.666 60.646C36.686 60.647 36.704 60.644 36.725 60.643 39.501 61.347 41.335 61.402 43.576 61.469 45.197 61.518 47.036 61.573 49.636 61.906 51.568 62.153 53.23 62.526 54.837 62.888 57.617 63.513 60.328 64.121 64.281 64.124 69.069 64.126 75.682 63.24 86.445 60.414A39 39 0 0 0 91.031 59.331C91.978 59.041 92.804 58.738 93.519 58.42 92.623 59.162 91.408 59.833 89.854 60.443" fill="#000000" data-fill-palette-color="accent"></path></svg></g></svg></g></svg></g></svg></g></svg></g></svg></g><defs></defs></svg><rect width="95.481" height="42.96233556203767" fill="none" stroke="none" visibility="hidden"></rect></g></svg></g></svg>